<svg width="121" height="90" viewBox="0 0 121 90" fill="none" xmlns="http://www.w3.org/2000/svg">
<path d="M14 0.400002C14 0.699997 19.9 8.6 27.1 18L40.2 35.1L38.4 37.8C37.4 39.3 31.5 47.5 25.1 56C18.8 64.5 10.6 75.7 6.8 80.7L0 90H5.3C9.5 90 10.7 89.6 11.5 88.1C12.1 87 15.2 82.4 18.6 77.8C40.1 48.4 49.1 35.7 48.8 34.8C48.6 34.2 42.8 26.2 36 17L23.5 0.0999985H18.8C16.1 0 14 0.199997 14 0.400002Z" fill="#000C7C"/>
<path d="M35 0.499996C35 0.799995 40.7 8.5 47.7 17.5C57.8 30.7 60.6 33.8 61.6 32.8C62.8 31.5 82.9 3.7 84.4 1.2C85 0.299995 79.8 -3.8147e-06 60.1 -3.8147e-06C46.3 -3.8147e-06 35 0.199997 35 0.499996Z" fill="#000C7C"/>
<path d="M84 17.5C76.1 28.2 71.2 35.6 71.7 36.3C72.7 38 106 83.9 108.6 87.3C110.4 89.5 111.6 90 115.5 90H120.1L115.8 84.1C113.4 80.8 104.8 69 96.5 57.9C88.3 46.7 81.1 37.1 80.7 36.4C80 35.1 80.9 33.8 99 10.5C102.8 5.5 106 1.2 106 0.699997C106 0.299995 104 0 101.5 0H97L84 17.5Z" fill="#000C7C"/>
<path d="M40.7 63.8L21.9 89.5L59.6 89.8C80.3 89.9 97.5 89.8 97.8 89.5C98 89.3 92.7 81.4 85.9 71.9C79.1 62.5 70.9 51.1 67.7 46.7C64.6 42.2 61.4 38.4 60.7 38.3C60.1 38.2 51 49.6 40.7 63.8Z" fill="#000C7C"/>
</svg>
