<svg width="448" height="90" viewBox="0 0 448 90" fill="none" xmlns="http://www.w3.org/2000/svg">
<path d="M14 0.399999C14 0.699999 19.9 8.6 27.1 18L40.2 35.1L38.4 37.8C37.4 39.3 31.5 47.5 25.1 56C18.8 64.5 10.6 75.7 6.8 80.7L0 90H5.3C9.5 90 10.7 89.6 11.5 88.1C12.1 87 15.2 82.4 18.6 77.8C40.1 48.4 49.1 35.7 48.8 34.8C48.6 34.2 42.8 26.2 36 17L23.5 0.0999987H18.8C16.1 -1.3411e-06 14 0.199999 14 0.399999Z" fill="#000C7C"/>
<path d="M35 0.500012C35 0.800012 40.7 8.50001 47.7 17.5C57.8 30.7 60.6 33.8 61.6 32.8C62.8 31.5 82.9 3.70001 84.4 1.20001C85 0.300012 79.8 1.17157e-05 60.1 1.17157e-05C46.3 1.17157e-05 35 0.200012 35 0.500012Z" fill="#000C7C"/>
<path d="M84 17.5C76.1 28.2 71.2 35.6 71.7 36.3C72.7 38 106 83.9 108.6 87.3C110.4 89.5 111.6 90 115.5 90H120.1L115.8 84.1C113.4 80.8 104.8 69 96.5 57.9C88.3 46.7 81.1 37.1 80.7 36.4C80 35.1 80.9 33.8 99 10.5C102.8 5.5 106 1.2 106 0.699999C106 0.299999 104 -1.3411e-06 101.5 -1.3411e-06H97L84 17.5Z" fill="#000C7C"/>
<path d="M105 16.7C98.1 25.8 92.4 33.9 92.2 34.6C92 35.3 100.6 48.1 111.2 62.9L130.5 89.9L289.3 90H448V45V-1.3411e-06L282.8 0.0999987H117.5L105 16.7ZM278.6 15.2C284.2 17.8 291.2 24.9 294.1 30.8C297.4 37.7 297.4 50.5 294 57.5C290.9 63.9 284.8 69.9 278.5 73C271 76.7 259.6 76.5 251.8 72.7C239 66.4 231.7 50.8 235 36.9C237.9 24.6 248 14.8 260 12.6C264.6 11.8 274.2 13.1 278.6 15.2ZM140.4 14.5C141.2 15.4 144 19.9 146.6 24.5C151.2 33.2 152.5 34.4 153.7 31.2C155.1 27.7 162.4 15.5 163.8 14.2C165.6 12.8 175.6 12.5 176.4 13.9C176.7 14.4 172.9 21.4 167.9 29.4L158.8 44L167.9 58.5C172.9 66.5 177 73.5 177 74C177 74.7 174.5 75 170.3 74.8L163.6 74.5L158 64.8C155 59.4 152.3 55 152 55C151.7 55 148.9 59.4 145.8 64.7L140.3 74.5L133.6 74.8C129 75 127 74.7 127 73.9C127 73.3 130.7 66.8 135.3 59.6C139.9 52.4 144 45.9 144.4 45.2C144.9 44.5 141.9 38.8 136.8 30.8C128 16.8 127 14.9 127.7 13.7C128.5 12.3 138.8 12.9 140.4 14.5ZM192.9 14.4C193.7 15.3 194 24.3 193.8 45.1L193.5 74.5H187.5H181.5L181.2 45.1C181 24.3 181.3 15.3 182.1 14.4C182.7 13.6 185.1 13 187.5 13C189.9 13 192.3 13.6 192.9 14.4ZM214.8 14.2C215.7 15.1 216 22.1 216 39.7V63.9L225.3 64.2L234.5 64.5V69.5V74.5H219H203.5L203.2 44.6C203 21.3 203.3 14.5 204.2 13.8C206.2 12.6 213.5 12.9 214.8 14.2ZM316 38.5L316.5 63.5L325.6 63.8L334.8 64.1L335.2 67.8C336.1 75.3 336.5 75.1 319.6 74.8L304.5 74.5L304.2 44.6C304 21.3 304.3 14.5 305.2 13.8C305.9 13.4 308.5 13.1 311 13.2L315.5 13.5L316 38.5ZM353 14.9C354.2 17.3 354.4 71.9 353.1 73.8C352.6 74.7 350.6 75 346.9 74.8L341.5 74.5L341.2 45.1C341 24.3 341.3 15.3 342.1 14.4C343.9 12.2 351.7 12.6 353 14.9ZM392.8 13.9C393.7 14.4 394 16.4 393.8 19.6L393.5 24.5L388.3 24.8L383 25.1V50.1V75.1L376.8 74.8L370.5 74.5L370.2 49.8L370 25.1L364.7 24.8L359.5 24.5L359.2 20.2C358.7 13.2 359.2 13 376.4 13C384.7 13 392.1 13.4 392.8 13.9ZM430.8 13.9C431.7 14.4 432 16.4 431.8 19.6L431.5 24.5L421.2 24.8L410.9 25.1L411.2 31.3L411.5 37.5L421.5 38L431.5 38.5L431.8 43.7L432.1 49H421.5H410.9L411.2 56.2L411.5 63.5L421.8 63.8L432 64.1V69.5V75H415.5H399V44.6C399 21.2 399.3 14.1 400.3 13.7C402.4 12.8 429.4 13 430.8 13.9Z" fill="#000C7C"/>
<path d="M260.7 26C252.4 28.5 247.5 35.9 248.2 45C249.4 61.1 267.5 68.6 278.3 57.5C286 49.6 285.8 37.9 277.8 30.2C272.9 25.5 267.1 24.1 260.7 26Z" fill="#000C7C"/>
<path d="M40.7 63.8L21.9 89.5L59.6 89.8C80.3 89.9 97.5 89.8 97.8 89.5C98 89.3 92.7 81.4 85.9 71.9C79.1 62.5 70.9 51.1 67.7 46.7C64.6 42.2 61.4 38.4 60.7 38.3C60.1 38.2 51 49.6 40.7 63.8Z" fill="#000C7C"/>
</svg>
